<mxfile host="app.diagrams.net" modified="2023-07-24T09:26:00.410Z" agent="Mozilla/5.0 (Macintosh; Intel Mac OS X 10_15_7) AppleWebKit/537.36 (KHTML, like Gecko) Chrome/114.0.0.0 Safari/537.36" etag="0E4qogThuDEZuAePN99Q" version="21.6.2" type="device">
  <diagram name="第 1 页" id="kEbg-usERxGq80pXlGAe">
    <mxGraphModel dx="1434" dy="796" grid="1" gridSize="10" guides="1" tooltips="1" connect="1" arrows="1" fold="1" page="1" pageScale="1" pageWidth="827" pageHeight="1169" math="0" shadow="0">
      <root>
        <mxCell id="0" />
        <mxCell id="1" parent="0" />
        <mxCell id="ojN8ayJvX9G2cb4ZTmDT-1" value="" style="rounded=0;whiteSpace=wrap;html=1;" vertex="1" parent="1">
          <mxGeometry x="310" y="80" width="150" height="570" as="geometry" />
        </mxCell>
        <mxCell id="ojN8ayJvX9G2cb4ZTmDT-4" value="低地址" style="text;html=1;align=center;verticalAlign=middle;resizable=0;points=[];autosize=1;strokeColor=none;fillColor=none;" vertex="1" parent="1">
          <mxGeometry x="580" y="435" width="60" height="30" as="geometry" />
        </mxCell>
        <mxCell id="ojN8ayJvX9G2cb4ZTmDT-5" value="高地址" style="text;html=1;align=center;verticalAlign=middle;resizable=0;points=[];autosize=1;strokeColor=none;fillColor=none;" vertex="1" parent="1">
          <mxGeometry x="580" y="265" width="60" height="30" as="geometry" />
        </mxCell>
        <mxCell id="ojN8ayJvX9G2cb4ZTmDT-6" value="" style="endArrow=classic;html=1;rounded=0;" edge="1" parent="1">
          <mxGeometry width="50" height="50" relative="1" as="geometry">
            <mxPoint x="570" y="455" as="sourcePoint" />
            <mxPoint x="570" y="265" as="targetPoint" />
          </mxGeometry>
        </mxCell>
        <mxCell id="ojN8ayJvX9G2cb4ZTmDT-7" value="&lt;font style=&quot;font-size: 18px;&quot;&gt;一页内存&lt;/font&gt;" style="text;html=1;align=center;verticalAlign=middle;resizable=0;points=[];autosize=1;strokeColor=none;fillColor=none;" vertex="1" parent="1">
          <mxGeometry x="330" y="33" width="100" height="40" as="geometry" />
        </mxCell>
        <mxCell id="ojN8ayJvX9G2cb4ZTmDT-8" value="" style="endArrow=none;html=1;rounded=0;entryX=1.013;entryY=0.416;entryDx=0;entryDy=0;entryPerimeter=0;" edge="1" parent="1">
          <mxGeometry width="50" height="50" relative="1" as="geometry">
            <mxPoint x="310" y="303" as="sourcePoint" />
            <mxPoint x="461.95000000000005" y="302.8499999999999" as="targetPoint" />
          </mxGeometry>
        </mxCell>
        <mxCell id="ojN8ayJvX9G2cb4ZTmDT-15" value="intr stack" style="rounded=0;whiteSpace=wrap;html=1;" vertex="1" parent="1">
          <mxGeometry x="321" y="80" width="130" height="89" as="geometry" />
        </mxCell>
        <mxCell id="ojN8ayJvX9G2cb4ZTmDT-16" value="thread stack" style="rounded=0;whiteSpace=wrap;html=1;" vertex="1" parent="1">
          <mxGeometry x="321" y="170" width="130" height="132" as="geometry" />
        </mxCell>
        <mxCell id="ojN8ayJvX9G2cb4ZTmDT-17" value="stack_magic" style="rounded=0;whiteSpace=wrap;html=1;" vertex="1" parent="1">
          <mxGeometry x="320" y="304" width="130" height="26" as="geometry" />
        </mxCell>
        <mxCell id="ojN8ayJvX9G2cb4ZTmDT-19" value="pid" style="rounded=0;whiteSpace=wrap;html=1;" vertex="1" parent="1">
          <mxGeometry x="320" y="620" width="130" height="26" as="geometry" />
        </mxCell>
        <mxCell id="ojN8ayJvX9G2cb4ZTmDT-21" value="name" style="rounded=0;whiteSpace=wrap;html=1;" vertex="1" parent="1">
          <mxGeometry x="320" y="594" width="130" height="26" as="geometry" />
        </mxCell>
        <mxCell id="ojN8ayJvX9G2cb4ZTmDT-22" value="status" style="rounded=0;whiteSpace=wrap;html=1;" vertex="1" parent="1">
          <mxGeometry x="320" y="568" width="130" height="26" as="geometry" />
        </mxCell>
        <mxCell id="ojN8ayJvX9G2cb4ZTmDT-23" value="prio" style="rounded=0;whiteSpace=wrap;html=1;" vertex="1" parent="1">
          <mxGeometry x="320" y="542" width="130" height="26" as="geometry" />
        </mxCell>
        <mxCell id="ojN8ayJvX9G2cb4ZTmDT-24" value="ticks" style="rounded=0;whiteSpace=wrap;html=1;" vertex="1" parent="1">
          <mxGeometry x="320" y="516" width="130" height="26" as="geometry" />
        </mxCell>
        <mxCell id="ojN8ayJvX9G2cb4ZTmDT-25" value="elapsed_ticks" style="rounded=0;whiteSpace=wrap;html=1;" vertex="1" parent="1">
          <mxGeometry x="320" y="490" width="130" height="26" as="geometry" />
        </mxCell>
        <mxCell id="ojN8ayJvX9G2cb4ZTmDT-26" value="pg_dir pointer" style="rounded=0;whiteSpace=wrap;html=1;" vertex="1" parent="1">
          <mxGeometry x="320" y="464" width="130" height="26" as="geometry" />
        </mxCell>
        <mxCell id="ojN8ayJvX9G2cb4ZTmDT-27" value="user_process_vaddr" style="rounded=0;whiteSpace=wrap;html=1;" vertex="1" parent="1">
          <mxGeometry x="320" y="438" width="130" height="26" as="geometry" />
        </mxCell>
        <mxCell id="ojN8ayJvX9G2cb4ZTmDT-28" value="fd_table" style="rounded=0;whiteSpace=wrap;html=1;" vertex="1" parent="1">
          <mxGeometry x="320" y="412" width="130" height="26" as="geometry" />
        </mxCell>
        <mxCell id="ojN8ayJvX9G2cb4ZTmDT-29" value="parent_pid" style="rounded=0;whiteSpace=wrap;html=1;" vertex="1" parent="1">
          <mxGeometry x="320" y="386" width="130" height="26" as="geometry" />
        </mxCell>
        <mxCell id="ojN8ayJvX9G2cb4ZTmDT-30" value="........" style="rounded=0;whiteSpace=wrap;html=1;" vertex="1" parent="1">
          <mxGeometry x="320" y="330" width="130" height="56" as="geometry" />
        </mxCell>
        <mxCell id="ojN8ayJvX9G2cb4ZTmDT-32" value="" style="strokeWidth=2;html=1;shape=mxgraph.flowchart.annotation_2;align=left;labelPosition=right;pointerEvents=1;" vertex="1" parent="1">
          <mxGeometry x="250" y="304" width="50" height="346" as="geometry" />
        </mxCell>
        <mxCell id="ojN8ayJvX9G2cb4ZTmDT-33" value="&lt;font style=&quot;font-size: 14px;&quot;&gt;task_struct&lt;br&gt;(PCB)&lt;br&gt;&lt;/font&gt;" style="text;html=1;align=center;verticalAlign=middle;resizable=0;points=[];autosize=1;strokeColor=none;fillColor=none;" vertex="1" parent="1">
          <mxGeometry x="158" y="453" width="90" height="50" as="geometry" />
        </mxCell>
      </root>
    </mxGraphModel>
  </diagram>
</mxfile>
